<svg xmlns="http://www.w3.org/2000/svg" viewBox="0 0 500 500">
  <defs>
    <style>
      .cls-1 {
        fill: #37ab88;
      }

      .cls-2 {
        fill: #fdfdfd;
      }
    </style>
  </defs>
  <title>linkedin-g3</title>
  <g id="Layer_2" data-name="Layer 2">
    <g id="Layer_1-2" data-name="Layer 1">
      <g id="Layer_2-2" data-name="Layer 2">
        <g id="Layer_1-2-2" data-name="Layer 1-2">
          <g id="Layer_2-2-2" data-name="Layer 2-2">
            <g id="svg2">
              <g id="layer1">
                <path id="rect2990-1" class="cls-1" d="M250,0h0C388.1,0,500,111.9,500,250h0c0,138.1-111.9,250-250,250h0C111.9,500,0,388.1,0,250H0C0,111.9,111.9,0,250,0Z"/>
                <path id="rect2989-1-7" class="cls-2" d="M128.8,90a38.8,38.8,0,1,0,38.8,38.8A38.8,38.8,0,0,0,128.8,90Zm203,101.1h0c-4.4,0-8.6.2-14.2.5-12.2.6-40.7,13.8-51.1,34.9,0-9.2.1-17.6.1-30.1-12.5,0-28.8.1-62.9.1,0,38.3-.4,174-.4,213.5h66.1c0-23.4.3-82.4.3-119.3,0-12.4,7.5-41.1,38.3-41.1,28,0,35.8,23.6,35.8,41.1,0,38.5-.3,93-.3,119.3H410c0-25.8.2-95.8-.6-139.9-1-53.6-33.5-76.5-62.8-78.3-6-.5-10.4-.7-14.8-.7ZM95.6,197.3V409.9h66.3V197.3Z"/>
              </g>
            </g>
          </g>
        </g>
      </g>
    </g>
  </g>
</svg>
