<svg xmlns="http://www.w3.org/2000/svg" viewBox="0 0 32 32">
  <defs>
    <style>
      .cls-1 {
        fill: #37ab88;
      }

      .cls-2 {
        fill: #fdfdfd;
      }
    </style>
  </defs>
  <title>twitter</title>
  <g id="Layer_2" data-name="Layer 2">
    <g id="Layer_1-2" data-name="Layer 1">
      <g>
        <circle class="cls-1" cx="16" cy="16" r="16"/>
        <path class="cls-2" d="M26,9.9a8.44,8.44,0,0,1-2.4.6,3.89,3.89,0,0,0,1.8-2.2,8.25,8.25,0,0,1-2.6,1A3.93,3.93,0,0,0,19.9,8a4,4,0,0,0-4.1,4,2.77,2.77,0,0,0,.1.9A12.23,12.23,0,0,1,7.4,8.7a3.7,3.7,0,0,0-.6,2.1,4.17,4.17,0,0,0,1.8,3.4,4.14,4.14,0,0,1-1.9-.5v.1a4.07,4.07,0,0,0,3.3,4,3.75,3.75,0,0,1-1.1.1,2.2,2.2,0,0,1-.8-.1,4,4,0,0,0,3.8,2.8,8.24,8.24,0,0,1-5.1,1.7,3.4,3.4,0,0,1-1-.1A12.19,12.19,0,0,0,12.1,24,11.57,11.57,0,0,0,24,12.5V12A8,8,0,0,0,26,9.9Z"/>
      </g>
    </g>
  </g>
</svg>
