<?xml version="1.0" encoding="utf-8"?>
<!-- Generator: Adobe Illustrator 22.1.0, SVG Export Plug-In . SVG Version: 6.00 Build 0)  -->
<svg version="1.1"
	 id="svg2" xmlns:cc="http://creativecommons.org/ns#" xmlns:dc="http://purl.org/dc/elements/1.1/" xmlns:inkscape="http://www.inkscape.org/namespaces/inkscape" xmlns:rdf="http://www.w3.org/1999/02/22-rdf-syntax-ns#" xmlns:sodipodi="http://sodipodi.sourceforge.net/DTD/sodipodi-0.dtd" xmlns:svg="http://www.w3.org/2000/svg"
	 xmlns="http://www.w3.org/2000/svg" xmlns:xlink="http://www.w3.org/1999/xlink" x="0px" y="0px" viewBox="0 0 500 500"
	 style="enable-background:new 0 0 500 500;" xml:space="preserve">
<style type="text/css">
	.st0{fill:#37AB88;}
	.st1{fill:#FDFDFD;}
</style>
<g id="layer1" transform="translate(0,-552.36218)">
	<path id="rect2990-1" class="st0" d="M250,552.4L250,552.4c138.1,0,250,111.9,250,250l0,0c0,138.1-111.9,250-250,250l0,0
		c-138.1,0-250-111.9-250-250l0,0C0,664.3,111.9,552.4,250,552.4z"/>
	<g id="layer1-9" transform="translate(-549.00515,80.294372)">
	</g>
	<g id="layer1-6" transform="translate(-575.71429,39.999999)">
	</g>
	<g id="layer1-92" transform="matrix(0.99533037,0,0,0.99716768,619.96997,-73.128637)">
		<g id="layer1-9-7" transform="translate(-1068,-236)">
		</g>
	</g>
	<path id="rect2989-1-7" class="st1" d="M128.8,642.4c-21.4,0-38.8,17.4-38.8,38.8c0,21.5,17.3,38.8,38.8,38.8s38.8-17.4,38.8-38.8
		C167.5,659.8,150.2,642.4,128.8,642.4z M331.8,743.5L331.8,743.5c-4.4,0-8.6,0.2-14.2,0.5c-12.2,0.6-40.7,13.8-51.1,34.9
		c0-9.2,0.1-17.6,0.1-30.1c-12.5,0-28.8,0.1-62.9,0.1c0,38.3-0.4,174-0.4,213.5h66.1c0-23.4,0.3-82.4,0.3-119.3
		c0-12.4,7.5-41.1,38.3-41.1c28,0,35.8,23.6,35.8,41.1c0,38.5-0.3,93-0.3,119.3H410c0-25.8,0.2-95.8-0.6-139.9
		c-1-53.6-33.5-76.5-62.8-78.3C340.6,743.7,336.2,743.5,331.8,743.5L331.8,743.5z M95.6,749.7v212.6h66.3V749.7
		C161.8,749.7,95.6,749.7,95.6,749.7z"/>
</g>
</svg>
