<?xml version="1.0" encoding="utf-8"?>
<!-- Generator: Adobe Illustrator 22.1.0, SVG Export Plug-In . SVG Version: 6.00 Build 0)  -->
<svg version="1.1" id="Layer_1" xmlns="http://www.w3.org/2000/svg" xmlns:xlink="http://www.w3.org/1999/xlink" x="0px" y="0px"
	 viewBox="0 0 32 32" style="enable-background:new 0 0 32 32;" xml:space="preserve">
<style type="text/css">
	.st0{fill:#37AB88;}
	.st1{fill:#107657;}
</style>
<g>
	<circle class="st0" cx="16" cy="16" r="16"/>
	<path class="st1" d="M26,9.9c-0.7,0.3-1.5,0.5-2.4,0.6c0.9-0.5,1.5-1.3,1.8-2.2c-0.8,0.5-1.7,0.8-2.6,1C22.1,8.5,21,8,19.9,8
		c-2.3,0-4.1,1.8-4.1,4c0,0.3,0,0.6,0.1,0.9c-3.4-0.2-6.4-1.8-8.5-4.2C7,9.3,6.8,10,6.8,10.8c0,1.4,0.7,2.6,1.8,3.4
		c-0.7,0-1.3-0.2-1.9-0.5c0,0,0,0,0,0.1c0,2,1.4,3.6,3.3,4c-0.3,0.1-0.7,0.1-1.1,0.1c-0.3,0-0.5,0-0.8-0.1c0.5,1.6,2,2.8,3.8,2.8
		c-1.4,1.1-3.2,1.7-5.1,1.7c-0.3,0-0.7,0-1-0.1c1.8,1.1,4,1.8,6.3,1.8C19.8,24,24,17.9,24,12.5c0-0.2,0-0.4,0-0.5
		C24.8,11.4,25.5,10.7,26,9.9z"/>
</g>
</svg>
