<svg xmlns="http://www.w3.org/2000/svg" viewBox="0 0 32.11 31.22">
  <defs>
    <style>
      .cls-1 {
        fill: #37ab88;
      }
    </style>
  </defs>
  <title>github-g3</title>
  <g id="Layer_2" data-name="Layer 2">
    <g id="Layer_1-2" data-name="Layer 1">
      <g id="Layer_2-2" data-name="Layer 2">
        <g id="Layer_1-2-2" data-name="Layer 1-2">
          <path class="cls-1" d="M16.11,0A16,16,0,0,0,11,31.2c.8.1,1.1-.3,1.1-.8V27.6c-4.4,1-5.4-2.1-5.4-2.1a4.13,4.13,0,0,0-1.8-2.3c-1.5-1,.1-1,.1-1a3.53,3.53,0,0,1,2.5,1.6c1.4,2.4,3.7,1.7,4.7,1.3a3.43,3.43,0,0,1,1-2.1c-3.6-.4-7.3-1.8-7.3-7.9a6.26,6.26,0,0,1,1.6-4.3,5.38,5.38,0,0,1,.2-4.2s1.3-.4,4.4,1.6a13.15,13.15,0,0,1,4-.5,17.46,17.46,0,0,1,4,.5c3.1-2.1,4.4-1.6,4.4-1.6a6,6,0,0,1,.2,4.2,6.18,6.18,0,0,1,1.6,4.3c0,6.1-3.7,7.5-7.3,7.9a3.74,3.74,0,0,1,1.1,2.9v4.4c0,.4.3.9,1.1.7a15.59,15.59,0,0,0,10.9-15A16,16,0,0,0,16.11,0Z"/>
        </g>
      </g>
    </g>
  </g>
</svg>
